<svg width="15" height="16" viewBox="0 0 15 16" fill="none" xmlns="http://www.w3.org/2000/svg">
<path d="M11.875 7.33325H3.125C2.43464 7.33325 1.875 7.93021 1.875 8.66659V13.3333C1.875 14.0696 2.43464 14.6666 3.125 14.6666H11.875C12.5654 14.6666 13.125 14.0696 13.125 13.3333V8.66659C13.125 7.93021 12.5654 7.33325 11.875 7.33325Z" stroke="white" stroke-width="1.5" stroke-linecap="round" stroke-linejoin="round"/>
<path d="M4.375 7.33325V4.66659C4.375 3.78253 4.70424 2.93468 5.29029 2.30956C5.87634 1.68444 6.6712 1.33325 7.5 1.33325C8.3288 1.33325 9.12366 1.68444 9.70971 2.30956C10.2958 2.93468 10.625 3.78253 10.625 4.66659V7.33325" stroke="white" stroke-width="1.5" stroke-linecap="round" stroke-linejoin="round"/>
</svg>
