<svg width="24" height="24" viewBox="0 0 24 24" fill="none" xmlns="http://www.w3.org/2000/svg">
<path fill-rule="evenodd" clip-rule="evenodd" d="M21.0294 5.92383C20.3715 6.21535 19.6656 6.41306 18.9239 6.50132C19.6812 6.04782 20.2609 5.32849 20.5357 4.474C19.8253 4.89397 19.0411 5.19893 18.2056 5.36424C17.5366 4.6505 16.5849 4.20593 15.5294 4.20593C13.5043 4.20593 11.8623 5.84789 11.8623 7.87186C11.8623 8.15891 11.8947 8.43927 11.9573 8.70737C8.91017 8.55432 6.20821 7.09444 4.39983 4.8761C4.08371 5.41673 3.90388 6.04668 3.90388 6.71912C3.90388 7.99137 4.55174 9.11393 5.53469 9.77069C4.93374 9.7506 4.36855 9.58528 3.87374 9.3105V9.3563C3.87374 11.1323 5.13816 12.6145 6.81473 12.9519C6.50756 13.0345 6.18365 13.0803 5.84855 13.0803C5.61176 13.0803 5.38278 13.0569 5.15826 13.0122C5.62514 14.4698 6.97894 15.5298 8.58293 15.5589C7.32855 16.5418 5.74691 17.126 4.02901 17.126C3.73302 17.126 3.44147 17.1081 3.15442 17.0758C4.77739 18.1179 6.70418 18.7255 8.77506 18.7255C15.5205 18.7255 19.2076 13.1384 19.2076 8.29297L19.1953 7.81826C19.9158 7.30441 20.539 6.65881 21.0294 5.92383Z" fill="#7D93A1"/>
<mask id="mask0_1_177" style="mask-type:luminance" maskUnits="userSpaceOnUse" x="3" y="4" width="19" height="15">
<path fill-rule="evenodd" clip-rule="evenodd" d="M21.0294 5.92383C20.3715 6.21535 19.6656 6.41306 18.9239 6.50132C19.6812 6.04782 20.2609 5.32849 20.5357 4.474C19.8253 4.89397 19.0411 5.19893 18.2056 5.36424C17.5366 4.6505 16.5849 4.20593 15.5294 4.20593C13.5043 4.20593 11.8623 5.84789 11.8623 7.87186C11.8623 8.15891 11.8947 8.43927 11.9573 8.70737C8.91017 8.55432 6.20821 7.09444 4.39983 4.8761C4.08371 5.41673 3.90388 6.04668 3.90388 6.71912C3.90388 7.99137 4.55174 9.11393 5.53469 9.77069C4.93374 9.7506 4.36855 9.58528 3.87374 9.3105V9.3563C3.87374 11.1323 5.13816 12.6145 6.81473 12.9519C6.50756 13.0345 6.18365 13.0803 5.84855 13.0803C5.61176 13.0803 5.38278 13.0569 5.15826 13.0122C5.62514 14.4698 6.97894 15.5298 8.58293 15.5589C7.32855 16.5418 5.74691 17.126 4.02901 17.126C3.73302 17.126 3.44147 17.1081 3.15442 17.0758C4.77739 18.1179 6.70418 18.7255 8.77506 18.7255C15.5205 18.7255 19.2076 13.1384 19.2076 8.29297L19.1953 7.81826C19.9158 7.30441 20.539 6.65881 21.0294 5.92383Z" fill="white"/>
</mask>
<g mask="url(#mask0_1_177)">
</g>
</svg>
