<svg width="25" height="24" viewBox="0 0 25 24" fill="none" xmlns="http://www.w3.org/2000/svg">
<path fill-rule="evenodd" clip-rule="evenodd" d="M7.52089 11.5662C7.52089 8.83289 9.74452 6.6092 12.4778 6.6092C15.2111 6.6092 17.4348 8.83289 17.4348 11.5662C17.4348 14.2995 15.2111 16.5231 12.4778 16.5231C9.74452 16.5231 7.52089 14.2995 7.52089 11.5662ZM9.2277 11.5661C9.2277 13.3582 10.6858 14.8161 12.4778 14.8161C14.2699 14.8161 15.7279 13.3582 15.7279 11.5661C15.7279 9.77395 14.27 8.31595 12.4778 8.31595C10.6857 8.31595 9.2277 9.77395 9.2277 11.5661Z" fill="#7D93A1"/>
<path fill-rule="evenodd" clip-rule="evenodd" d="M8.2375 2.10291H16.7179C19.5981 2.10291 21.9412 4.44602 21.9411 7.32593V15.8064C21.9411 18.6863 19.5981 21.0294 16.7179 21.0294H8.2375C5.35759 21.0294 3.01459 18.6864 3.01459 15.8064V7.32593C3.01459 4.44602 5.35759 2.10291 8.2375 2.10291ZM16.718 19.3501C18.6721 19.3501 20.2619 17.7604 20.2619 15.8064L20.2618 7.32593C20.2618 5.37196 18.672 3.78216 16.7179 3.78216H8.2375C6.28353 3.78216 4.69384 5.37196 4.69384 7.32593V15.8064C4.69384 17.7604 6.28353 19.3502 8.2375 19.3501H16.718Z" fill="#7D93A1"/>
</svg>
