<svg width="25" height="24" viewBox="0 0 25 24" fill="none" xmlns="http://www.w3.org/2000/svg">
<path fill-rule="evenodd" clip-rule="evenodd" d="M14.0978 19.9779V12.3045H16.7227L17.1165 9.31315H14.0978V7.4036C14.0978 6.5378 14.3419 5.94777 15.6092 5.94777L17.2228 5.94712V3.27154C16.9437 3.23597 15.9859 3.15442 14.871 3.15442C12.5429 3.15442 10.9491 4.54822 10.9491 7.10733V9.31315H8.31622V12.3045H10.9491V19.9779H14.0978Z" fill="#7D93A1"/>
<mask id="mask0_1_174" style="mask-type:luminance" maskUnits="userSpaceOnUse" x="8" y="3" width="10" height="17">
<path fill-rule="evenodd" clip-rule="evenodd" d="M14.0978 19.9779V12.3045H16.7227L17.1165 9.31315H14.0978V7.4036C14.0978 6.5378 14.3419 5.94777 15.6092 5.94777L17.2228 5.94712V3.27154C16.9437 3.23597 15.9859 3.15442 14.871 3.15442C12.5429 3.15442 10.9491 4.54822 10.9491 7.10733V9.31315H8.31622V12.3045H10.9491V19.9779H14.0978Z" fill="white"/>
</mask>
<g mask="url(#mask0_1_174)">
</g>
</svg>
