<svg width="21" height="21" viewBox="0 0 21 21" fill="none" xmlns="http://www.w3.org/2000/svg">
<g clip-path="url(#clip0_1_182)">
<path d="M20.8623 6.10271C20.8623 4.25701 19.5046 2.77225 17.8271 2.77225C15.5548 2.66602 13.2374 2.625 10.8692 2.625H10.1309C7.76843 2.625 5.44694 2.66602 3.17468 2.77266C1.50124 2.77266 0.143621 4.26562 0.143621 6.11133C0.0410819 7.57107 -0.00239462 9.03123 6.63138e-05 10.4914C-0.00403525 11.9515 0.0424491 13.4131 0.139519 14.876C0.139519 16.7217 1.49714 18.2187 3.17057 18.2187C5.55768 18.3295 8.00632 18.3787 10.496 18.3746C12.9897 18.3828 15.4315 18.3308 17.8214 18.2187C19.4989 18.2187 20.8565 16.7217 20.8565 14.876C20.9549 13.4117 21.0001 11.9515 20.996 10.4873C21.0053 9.02713 20.9607 7.5656 20.8623 6.10271ZM8.4903 14.515V6.45545L14.4376 10.4832L8.4903 14.515Z" fill="#7D93A1"/>
</g>
<defs>
<clipPath id="clip0_1_182">
<rect width="21" height="21" fill="white"/>
</clipPath>
</defs>
</svg>
