<svg width="20" height="20" viewBox="0 0 20 20" fill="none" xmlns="http://www.w3.org/2000/svg">
<g clip-path="url(#clip0_1_184)">
<path fill-rule="evenodd" clip-rule="evenodd" d="M0.833313 2.36504C0.833313 1.95882 0.994685 1.56923 1.28193 1.28199C1.56917 0.994748 1.95876 0.833376 2.36498 0.833376H17.6333C17.8346 0.833047 18.034 0.872428 18.2201 0.949265C18.4062 1.0261 18.5753 1.13888 18.7177 1.28116C18.8601 1.42343 18.9731 1.5924 19.0501 1.77838C19.1272 1.96437 19.1668 2.16373 19.1666 2.36504V17.6334C19.1669 17.8347 19.1274 18.0341 19.0505 18.2202C18.9735 18.4063 18.8607 18.5754 18.7183 18.7178C18.576 18.8602 18.407 18.9732 18.2209 19.0502C18.0349 19.1272 17.8355 19.1668 17.6341 19.1667H2.36498C2.16377 19.1667 1.96453 19.1271 1.77864 19.05C1.59276 18.973 1.42387 18.8601 1.28163 18.7178C1.13939 18.5755 1.02659 18.4065 0.949665 18.2206C0.872741 18.0347 0.833204 17.8354 0.833313 17.6342V2.36504ZM8.08998 7.82338H10.5725V9.07004C10.9308 8.35338 11.8475 7.70838 13.225 7.70838C15.8658 7.70838 16.4916 9.13588 16.4916 11.755V16.6067H13.8191V12.3517C13.8191 10.86 13.4608 10.0184 12.5508 10.0184C11.2883 10.0184 10.7633 10.9259 10.7633 12.3517V16.6067H8.08998V7.82338ZM3.50665 16.4925H6.17998V7.70838H3.50665V16.4917V16.4925ZM6.56248 4.84338C6.56752 5.07227 6.52679 5.29987 6.44268 5.5128C6.35857 5.72574 6.23277 5.91974 6.07267 6.0834C5.91257 6.24707 5.7214 6.3771 5.51036 6.46588C5.29932 6.55466 5.07268 6.60039 4.84373 6.60039C4.61478 6.60039 4.38814 6.55466 4.1771 6.46588C3.96606 6.3771 3.77489 6.24707 3.61479 6.0834C3.45469 5.91974 3.32889 5.72574 3.24478 5.5128C3.16067 5.29987 3.11994 5.07227 3.12498 4.84338C3.13487 4.39409 3.3203 3.96654 3.64155 3.65228C3.9628 3.33803 4.39433 3.16206 4.84373 3.16206C5.29313 3.16206 5.72466 3.33803 6.04591 3.65228C6.36716 3.96654 6.55259 4.39409 6.56248 4.84338V4.84338Z" fill="#7D93A2"/>
</g>
<defs>
<clipPath id="clip0_1_184">
<rect width="20" height="20" fill="white"/>
</clipPath>
</defs>
</svg>
